Input #0, mov,mp4,m4a,3gp,3g2,mj2, from '/home/hbattu/projects/huberman-gpt/huberman-audio/mp3/tmpfinybdgp.mp4':
  Metadata:
    major_brand     : dash
    minor_version   : 0
    compatible_brands: iso6mp41
    creation_time   : 2021-06-29T18:59:54.000000Z
  Duration: 02:02:05.41, start: 0.000000, bitrate: 129 kb/s
    Stream #0:0(und): Audio: aac (LC) (mp4a / 0x6134706D), 44100 Hz, stereo, fltp, 0 kb/s (default)
    Metadata:
      creation_time   : 2021-06-29T18:59:54.000000Z
      handler_name    : ISO Media file produced by Google Inc.
Stream mapping:
  Stream #0:0 -> #0:0 (aac (native) -> mp3 (libmp3lame))
Press [q] to stop, [?] for help
[graph_0_in_0_0 @ 0x55bc1550b380] tb:1/44100 samplefmt:fltp samplerate:44100 chlayout:0x3
Output #0, mp3, to '../huberman-audio/mp3/w9MXqXBZy9U.mp3':
  Metadata:
    major_brand     : dash
    minor_version   : 0
    compatible_brands: iso6mp41
    TSSE            : Lavf58.29.100
    Stream #0:0(und): Audio: mp3 (libmp3lame), 44100 Hz, stereo, fltp, delay 1105 (default)
    Metadata:
      creation_time   : 2021-06-29T18:59:54.000000Z
      handler_name    : ISO Media file produced by Google Inc.
      encoder         : Lavc58.54.100 libmp3lame
No more output streams to write to, finishing.
size=  114460kB time=02:02:05.41 bitrate= 128.0kbits/s speed=83.2x    
[AVIOContext @ 0x55bc153fb900] Statistics: 0 seeks, 176 writeouts
video:0kB audio:114460kB subtitle:0kB other streams:0kB global headers:0kB muxing overhead: 0.000295%
Input file #0 (/home/hbattu/projects/huberman-gpt/huberman-audio/mp3/tmpfinybdgp.mp4):
  Input stream #0:0 (audio): 315479 packets read (117206529 bytes); 315479 frames decoded (323050496 samples); 
  Total: 315479 packets (117206529 bytes) demuxed
Output file #0 (../huberman-audio/mp3/w9MXqXBZy9U.mp3):
  Output stream #0:0 (audio): 280426 frames encoded (323050496 samples); 280427 packets muxed (117207040 bytes); 
  Total: 280427 packets (117207040 bytes) muxed
[AVIOContext @ 0x55bc15423b80] Statistics: 2 seeks, 449 writeouts
[AVIOContext @ 0x55bc15404880] Statistics: 118554253 bytes read, 0 seeks
